<svg width="24" height="25" viewBox="0 0 24 25" fill="none" xmlns="http://www.w3.org/2000/svg">
<g clip-path="url(#clip0_789_3744)">
<path d="M9.33334 1.59971H9.23334V1.69971V19.033V19.133H9.33334H14.6666H14.7666V19.033V1.69971V1.59971H14.6666H9.33334ZM1.33334 6.93303H1.23334V7.03303V19.033V19.133H1.33334H6.66666H6.76666V19.033V7.03303V6.93303H6.66666H1.33334ZM24.1 21.6997V21.5997H24H0H-0.1V21.6997V23.1664V23.2664H0H24H24.1V23.1664V21.6997ZM17.3334 9.59971H17.2334V9.69971V19.033V19.133H17.3334H22.6666H22.7666V19.033V9.69971V9.59971H22.6666H17.3334ZM10.9 17.4664V3.26637H13.1V17.4664H10.9ZM2.9 8.59971H5.1V17.4664H2.9V8.59971ZM18.9 11.2664H21.1V17.4664H18.9V11.2664Z" fill="#1C1C1C" stroke="#1C1C1C" stroke-width="0.2"/>
</g>
<defs>
<clipPath id="clip0_789_3744">
<rect width="24" height="24" fill="white" transform="translate(0 0.36377)"/>
</clipPath>
</defs>
</svg>
