<svg width="20" height="20" viewBox="0 0 20 20" fill="none" xmlns="http://www.w3.org/2000/svg">
<path fill-rule="evenodd" clip-rule="evenodd" d="M15.8941 15.8914C13.3473 18.4385 9.57611 18.9888 6.48998 17.5615C6.03439 17.3781 5.66087 17.2298 5.30578 17.2298C4.31671 17.2357 3.08561 18.1947 2.44577 17.5557C1.80593 16.9157 2.76569 15.6837 2.76569 14.6886C2.76569 14.3335 2.62332 13.9666 2.43991 13.5102C1.01199 10.4245 1.56306 6.65208 4.10985 4.10584C7.36097 0.85353 12.643 0.853531 15.8941 4.10501C19.1511 7.36234 19.1452 12.6399 15.8941 15.8914Z" stroke="black" stroke-width="1.5" stroke-linecap="round" stroke-linejoin="round"/>
<path d="M13.284 10.3439H13.2915" stroke="black" stroke-width="2" stroke-linecap="round" stroke-linejoin="round"/>
<path d="M9.94417 10.3439H9.95167" stroke="black" stroke-width="2" stroke-linecap="round" stroke-linejoin="round"/>
<path d="M6.60432 10.3439H6.61182" stroke="black" stroke-width="2" stroke-linecap="round" stroke-linejoin="round"/>
</svg>
