<svg width="26" height="26" viewBox="0 0 26 26" fill="none" xmlns="http://www.w3.org/2000/svg">
<g clip-path="url(#clip0_4250_5401)">
<path d="M15.7372 20.3125H10.4726C10.1797 20.3125 10.1797 20.5867 10.1797 20.5867C10.1797 21.6828 11.643 22.2308 13.1051 22.2308C14.5672 22.2308 16.0297 21.6828 16.0297 20.5867C16.0297 20.5867 16.0301 20.3125 15.7372 20.3125Z" fill="#1C1C1C"/>
<path d="M13.1054 19.3538C14.4639 19.3534 15.1432 18.395 14.4639 18.395H11.7469C11.0677 18.395 11.7469 19.3538 13.1054 19.3538Z" fill="#1C1C1C"/>
<path d="M12.9987 7.97912C16.1894 7.97912 18.6322 7.80606 20.5115 7.54646C18.5278 3.75777 21.192 -0.398163 18.6354 1.14193C16.5375 2.40659 14.4722 2.73768 12.9987 2.73768C11.5252 2.73768 9.46148 2.4074 7.36198 1.14193C4.80586 -0.398163 7.46964 3.75777 5.48633 7.54646C7.36523 7.80606 9.80802 7.97912 12.9987 7.97912Z" fill="#1C1C1C"/>
<path d="M25.1875 11.2121C25.1875 10.7076 25.0083 10.9688 21.4764 8.92454L21.4679 8.91479C21.2851 8.94323 16.8179 9.64483 12.9992 9.64483C9.18044 9.64483 4.71413 8.94323 4.53131 8.91479L4.52278 8.92454C0.990844 10.9688 0.8125 10.7072 0.8125 11.2121C0.8125 11.3714 0.866938 12.266 3.25813 12.9891C2.34163 15.0772 3.00869 17.5228 4.86525 18.8793L4.57641 19.3725L4.16041 19.1356L2.197 22.4795C2.01459 22.4238 1.88134 22.4125 1.84519 22.4738L1.73753 22.6566C1.56284 22.9536 3.93372 24.3007 4.10841 24.0029L4.21566 23.8209C4.25181 23.7588 4.17422 23.6507 4.03406 23.5227L5.89794 20.3471C6.71937 22.2504 8.32609 23.6113 11.1491 24.8597C11.6208 25.0681 12.3342 25.1875 13.1056 25.1875C13.8771 25.1875 14.5901 25.0681 15.0621 24.8593C18.6676 23.264 20.3682 21.4045 20.8516 18.4925C21.7181 18.3435 22.6111 17.7926 22.6111 16.1586C22.6111 14.6762 22.0175 14.2253 21.5117 14.1099C21.5016 13.8413 21.4886 13.5727 21.4727 13.3043C25.116 12.5556 25.1875 11.3958 25.1875 11.2121ZM4.12912 13.2182C4.68528 13.3458 5.33772 13.464 6.09538 13.5664C5.60666 13.8861 5.28125 14.3695 5.28125 15.0146C5.52744 14.4089 6.097 14.0051 6.77625 13.8073C6.54273 14.0966 6.41451 14.4568 6.41266 14.8286C6.41266 15.7512 7.17275 16.4983 8.10997 16.4983C9.048 16.4983 9.80809 15.7508 9.80809 14.8286C9.80809 14.6242 9.76544 14.4309 9.69719 14.2493C10.0856 14.5267 10.3988 14.9001 10.5629 15.3851C10.5629 14.7502 10.32 14.2525 9.94053 13.8857C10.5337 13.9109 11.1646 13.9283 11.8369 13.9381C11.9686 14.4443 11.9991 14.9716 11.9266 15.4896C11.8541 16.0076 11.68 16.5063 11.4144 16.9569C10.2781 18.8923 7.76222 19.5557 5.79516 18.4381C3.93047 17.3782 3.2305 15.1008 4.12912 13.2182ZM5.58025 19.9429L5.681 19.7714C5.71309 19.8685 5.74762 19.9644 5.78337 20.0586L5.58025 19.9429ZM21.7986 16.1586C21.7986 17.1848 21.3874 17.6711 20.4665 17.7349L20.1358 17.7576L20.0927 18.0814C19.7157 20.8943 18.2118 22.59 14.7294 24.1309C14.3638 24.2922 13.7568 24.3889 13.106 24.3889C12.4552 24.3889 11.8483 24.2926 11.4827 24.1309C8.69212 22.8967 7.19631 21.5662 6.50528 19.6666C8.65353 20.2601 11.0175 19.3835 12.1855 17.3945C12.7969 16.3551 12.9974 15.1247 12.7477 13.945C12.833 13.9454 12.9131 13.9466 12.9996 13.9466C14.0185 13.9466 14.9451 13.9279 15.8007 13.8954C15.1828 14.2034 14.731 14.7546 14.731 15.5602C14.8728 15.1422 15.1422 14.8213 15.4769 14.582C15.4147 14.7411 15.3822 14.9104 15.381 15.0813C15.381 15.8755 16.0363 16.5194 16.8435 16.5194C17.652 16.5194 18.306 15.8755 18.306 15.0813C18.306 14.7481 18.1862 14.4455 17.9932 14.2017C18.5782 14.372 19.069 14.7193 19.281 15.2413C19.281 14.4934 18.7724 13.997 18.0964 13.761C18.6212 13.7182 19.1449 13.6642 19.6674 13.5989C19.6852 13.8195 19.7031 14.0522 19.721 14.3049C19.7539 15.191 19.6617 15.8353 19.6609 15.8414L19.5483 16.6096L20.2495 16.2537C20.2987 16.2285 20.7378 15.9965 20.9731 15.5688C21.0596 15.4107 21.1323 15.182 21.1941 14.8749H21.1957C21.5954 14.8741 21.7986 15.3067 21.7986 16.1586Z" fill="#1C1C1C"/>
</g>
<defs>
<clipPath id="clip0_4250_5401">
<rect width="26" height="26" fill="white"/>
</clipPath>
</defs>
</svg>
