<svg width="18" height="19" viewBox="0 0 18 19" fill="none" xmlns="http://www.w3.org/2000/svg">
<g clip-path="url(#clip0_702_4183)">
<path d="M16.6475 7.52056C16.8401 6.9735 16.9453 6.38554 16.9453 5.77344C16.9453 2.86566 14.5797 0.5 11.6719 0.5H5.27344C2.36566 0.5 0 2.86566 0 5.77344C0 7.12621 0.512297 8.36146 1.35274 9.29595C1.15506 9.8567 1.05469 10.4441 1.05469 11.0469C1.05469 13.9741 3.42035 16.3555 6.32812 16.3555H8.83962L11.9056 18.4107C11.9925 18.4689 12.0947 18.5 12.1993 18.5C12.3391 18.5 12.4733 18.4444 12.5721 18.3455C12.671 18.2466 12.7266 18.1125 12.7266 17.9727V16.3555H13.2348C13.3162 16.3555 13.3934 16.337 13.4623 16.304C16.023 15.9425 18 13.7227 18 11.0469C18 9.72869 17.5221 8.48968 16.6475 7.52056ZM1.05469 5.77344C1.05469 3.44722 2.94722 1.55469 5.27344 1.55469H11.6719C13.9981 1.55469 15.8906 3.44722 15.8906 5.77344C15.8906 8.09966 13.9981 9.99219 11.6719 9.99219H9C8.89678 9.99219 8.79585 10.0225 8.70971 10.0793L6.32812 11.6496V10.5195C6.32812 10.2283 6.09202 9.99219 5.80078 9.99219H5.27344C2.94722 9.99219 1.05469 8.09966 1.05469 5.77344ZM12.7266 15.3008H12.1992C11.908 15.3008 11.6719 15.5369 11.6719 15.8281V16.9843L9.29366 15.3901C9.2068 15.3319 9.10458 15.3008 9 15.3008H6.32812C4.00191 15.3008 2.10938 13.3925 2.10938 11.0469C2.10905 10.7186 2.14698 10.3915 2.2224 10.072C2.89512 10.5509 3.68434 10.8762 4.53871 10.9959C4.60947 11.0296 4.68688 11.047 4.76525 11.0469H5.27344V12.6289C5.27344 12.7242 5.29922 12.8176 5.34805 12.8994C5.39687 12.9811 5.46693 13.0481 5.55077 13.0933C5.63461 13.1384 5.72911 13.16 5.82424 13.1558C5.91936 13.1515 6.01157 13.1216 6.09107 13.0692L9.1582 11.0469H11.6719C13.5538 11.0469 15.2083 10.0557 16.1417 8.56829C16.6637 9.28361 16.9453 10.142 16.9453 11.0469C16.9453 13.3925 15.0528 15.3008 12.7266 15.3008Z" fill="#FF6347"/>
<path d="M5.27344 4.71875C4.69188 4.71875 4.21875 5.19188 4.21875 5.77344C4.21875 6.35499 4.69188 6.82812 5.27344 6.82812C5.85499 6.82812 6.32812 6.35499 6.32812 5.77344C6.32812 5.19188 5.85499 4.71875 5.27344 4.71875ZM8.47266 4.71875C7.8911 4.71875 7.41797 5.19188 7.41797 5.77344C7.41797 6.35499 7.8911 6.82812 8.47266 6.82812C9.05421 6.82812 9.52734 6.35499 9.52734 5.77344C9.52734 5.19188 9.05421 4.71875 8.47266 4.71875ZM11.6719 4.71875C11.0903 4.71875 10.6172 5.19188 10.6172 5.77344C10.6172 6.35499 11.0903 6.82812 11.6719 6.82812C12.2534 6.82812 12.7266 6.35499 12.7266 5.77344C12.7266 5.19188 12.2534 4.71875 11.6719 4.71875Z" fill="#FF6347"/>
</g>
<defs>
<clipPath id="clip0_702_4183">
<rect width="18" height="18" fill="white" transform="translate(0 0.5)"/>
</clipPath>
</defs>
</svg>
