<svg width="26" height="27" viewBox="0 0 26 27" fill="none" xmlns="http://www.w3.org/2000/svg">
<path fill-rule="evenodd" clip-rule="evenodd" d="M11.1636 20.6917C10.5949 20.6917 10.1625 21.2217 10.46 21.7063C10.9839 22.5599 11.9258 23.1292 13.0008 23.1292C14.0757 23.1292 15.0177 22.5599 15.5417 21.7063C15.8392 21.2217 15.4067 20.6917 14.8381 20.6917C14.4761 20.6917 14.1653 20.93 13.8932 21.1685C13.655 21.3775 13.3426 21.5042 13.0008 21.5042C12.6589 21.5042 12.3467 21.3775 12.1084 21.1685C11.8364 20.93 11.5254 20.6917 11.1636 20.6917Z" fill="#1C1C1C"/>
<mask id="mask0_4250_5287" style="mask-type:alpha" maskUnits="userSpaceOnUse" x="3" y="2" width="20" height="18">
<path fill-rule="evenodd" clip-rule="evenodd" d="M21.1243 12.118C21.1243 8.8806 19.5174 5.85434 16.8355 4.041L15.4266 3.08829C13.9603 2.09687 12.0384 2.09687 10.5721 3.08829L9.16312 4.04099C6.48126 5.85434 4.87435 8.88059 4.87435 12.118V14.1914C4.20945 14.7864 3.79102 15.6513 3.79102 16.6138C3.79102 18.4088 5.24609 19.8638 7.04102 19.8638H18.9577C20.7527 19.8638 22.2077 18.4088 22.2077 16.6138C22.2077 15.6513 21.7892 14.7864 21.1243 14.1914V12.118Z" fill="#FFFFFF"/>
</mask>
<g mask="url(#mask0_4250_5287)">
<path d="M16.8355 4.041L15.9253 5.38716L16.8355 4.041ZM21.1243 12.118H22.7493H21.1243ZM15.4266 3.08829L16.3368 1.74213L15.4266 3.08829ZM10.5721 3.08829L9.66193 1.74213L10.5721 3.08829ZM9.16312 4.04099L10.0733 5.38716L9.16312 4.04099ZM4.87435 12.118H6.49935H4.87435ZM4.87435 14.1914L5.95808 15.4022L6.49935 14.9177V14.1914H4.87435ZM21.1243 14.1914H19.4993V14.9177L20.0406 15.4022L21.1243 14.1914ZM15.9253 5.38716C18.1602 6.89827 19.4993 9.42015 19.4993 12.118H22.7493C22.7493 8.34103 20.8746 4.81039 17.7458 2.69482L15.9253 5.38716ZM14.5163 4.43445L15.9253 5.38716L17.7458 2.69482L16.3368 1.74213L14.5163 4.43445ZM11.4824 4.43445C12.3987 3.81482 13.5999 3.81482 14.5163 4.43445L16.3368 1.74213C14.3206 0.378925 11.6781 0.378925 9.66193 1.74213L11.4824 4.43445ZM10.0733 5.38716L11.4824 4.43445L9.66193 1.74213L8.25292 2.69482L10.0733 5.38716ZM6.49935 12.118C6.49935 9.42015 7.83844 6.89827 10.0733 5.38716L8.25292 2.69482C5.12407 4.81039 3.24935 8.34103 3.24935 12.118H6.49935ZM6.49935 14.1914V12.118H3.24935V14.1914H6.49935ZM5.41602 16.6138C5.41602 16.1327 5.62304 15.7021 5.95808 15.4022L3.79061 12.9805C2.79587 13.8708 2.16602 15.1698 2.16602 16.6138H5.41602ZM7.04102 18.2388C6.14355 18.2388 5.41602 17.5112 5.41602 16.6138H2.16602C2.16602 19.3062 4.34863 21.4888 7.04102 21.4888V18.2388ZM18.9577 18.2388H7.04102V21.4888H18.9577V18.2388ZM20.5827 16.6138C20.5827 17.5112 19.8551 18.2388 18.9577 18.2388V21.4888C21.6501 21.4888 23.8327 19.3062 23.8327 16.6138H20.5827ZM20.0406 15.4022C20.3757 15.7021 20.5827 16.1327 20.5827 16.6138H23.8327C23.8327 15.1698 23.2028 13.8708 22.2081 12.9805L20.0406 15.4022ZM19.4993 12.118V14.1914H22.7493V12.118H19.4993Z" fill="#1C1C1C"/>
</g>
</svg>
