<svg width="24" height="25" viewBox="0 0 24 25" fill="none" xmlns="http://www.w3.org/2000/svg">
<g clip-path="url(#clip0_789_3749)">
<path d="M21.8848 0.363281H19.7994C19.4228 0.363281 19.0799 0.664463 19.0799 1.0411C19.0799 3.25983 17.2713 5.09046 14.9077 5.3521V4.05437C14.9077 3.67774 14.6778 3.36328 14.3011 3.36328H9.71022C9.33367 3.36328 8.99858 3.67774 8.99858 4.05437V4.90874H5.68522C4.66894 4.90874 3.8184 5.5451 3.61949 6.5451H3.58276C2.4294 6.5451 1.45312 7.48355 1.45312 8.63692V10.089C1.45312 11.2423 2.4294 12.1815 3.58276 12.1815H3.6194C3.81812 13.1815 4.66885 13.8178 5.68522 13.8178H7.45312V22.0738C7.45312 23.3406 8.52431 24.3633 9.79122 24.3633H11.2122C12.479 24.3633 13.4531 23.3406 13.4531 22.0738V15.3633H14.3011C14.6778 15.3633 14.9077 15.0481 14.9077 14.6716V13.374C17.2713 13.6356 19.0799 15.4666 19.0799 17.6853C19.0799 18.0619 19.4228 18.3634 19.7994 18.3634H21.8848C22.2614 18.3634 22.544 18.0656 22.544 17.689V1.0371C22.544 0.660554 22.2614 0.363281 21.8848 0.363281ZM2.81676 10.0889V8.63692C2.81676 8.23792 3.1804 7.91328 3.54403 7.90928V10.8166C3.1804 10.8126 2.81676 10.4879 2.81676 10.0889ZM11.2122 22.9996H9.79122C9.27622 22.9996 8.81676 22.5887 8.81676 22.0738V15.9816L12.0895 17.8415V22.0738C12.0895 22.5887 11.7271 22.9996 11.2122 22.9996ZM13.544 13.9996H10.3622V4.72692H13.544V13.9996Z" fill="#1C1C1C"/>
</g>
<defs>
<clipPath id="clip0_789_3749">
<rect width="24" height="24" fill="white" transform="translate(0 0.363281)"/>
</clipPath>
</defs>
</svg>
