<svg width="12" height="13" viewBox="0 0 12 13" fill="none" xmlns="http://www.w3.org/2000/svg">
<mask id="mask0_702_4191" style="mask-type:alpha" maskUnits="userSpaceOnUse" x="0" y="0" width="12" height="13">
<path d="M6.86447 2.25531L7.74447 4.01531C7.86447 4.26031 8.18447 4.49531 8.45447 4.54031L10.0495 4.80531C11.0695 4.97531 11.3095 5.71531 10.5745 6.44531L9.33447 7.68531C9.12446 7.89531 9.00947 8.30031 9.07446 8.59031L9.42947 10.1253C9.70947 11.3403 9.06447 11.8103 7.98947 11.1753L6.49447 10.2903C6.22447 10.1303 5.77947 10.1303 5.50447 10.2903L4.00947 11.1753C2.93947 11.8103 2.28947 11.3353 2.56947 10.1253L2.92447 8.59031C2.98947 8.30031 2.87447 7.89531 2.66447 7.68531L1.42447 6.44531C0.694466 5.71531 0.929466 4.97531 1.94947 4.80531L3.54447 4.54031C3.80947 4.49531 4.12947 4.26031 4.24947 4.01531L5.12947 2.25531C5.60947 1.30031 6.38947 1.30031 6.86447 2.25531Z" fill="white" stroke="#292D32" stroke-width="1.5" stroke-linecap="round" stroke-linejoin="round"/>
</mask>
<g mask="url(#mask0_702_4191)">
<rect y="0.5" width="12" height="12" fill="#FFCD1A"/>
</g>
</svg>
