<svg width="26" height="29" viewBox="0 0 26 29" fill="none" xmlns="http://www.w3.org/2000/svg">
<path d="M12.9003 0.819472C13.0792 0.594141 13.3007 0.406766 13.552 0.268192C13.8033 0.129619 14.0794 0.0425989 14.3643 0.0121705C14.6493 -0.018258 14.9374 0.00850898 15.2119 0.0909222C15.4865 0.173335 15.7421 0.309758 15.964 0.492293L23.0317 6.303C23.4203 6.62249 23.6868 7.06787 23.7856 7.56314C23.8844 8.0584 23.8094 8.57283 23.5733 9.01859C22.9554 8.82848 22.3128 8.73217 21.6667 8.73286H21.0167L21.6623 7.99125L17.94 4.93103L14.8698 8.73504H12.077L16.2608 3.55251L14.5925 2.18054L9.39683 8.73286H6.6235L12.9003 0.819472ZM18.4167 19.6388C18.1293 19.6388 17.8538 19.7537 17.6506 19.9583C17.4475 20.1628 17.3333 20.4402 17.3333 20.7294C17.3333 21.0187 17.4475 21.2961 17.6506 21.5006C17.8538 21.7051 18.1293 21.82 18.4167 21.82H20.5833C20.8707 21.82 21.1462 21.7051 21.3494 21.5006C21.5525 21.2961 21.6667 21.0187 21.6667 20.7294C21.6667 20.4402 21.5525 20.1628 21.3494 19.9583C21.1462 19.7537 20.8707 19.6388 20.5833 19.6388H18.4167ZM2.16667 9.82346C2.16667 9.53421 2.2808 9.25681 2.48397 9.05229C2.68713 8.84776 2.96268 8.73286 3.25 8.73286H4.459L6.1815 6.55166H3.25C2.38805 6.55166 1.5614 6.89637 0.951903 7.50995C0.34241 8.12353 0 8.95572 0 9.82346V22.9106C0 24.3569 0.570683 25.7439 1.5865 26.7665C2.60233 27.7891 3.98008 28.3636 5.41667 28.3636H21.6667C22.8159 28.3636 23.9181 27.904 24.7308 27.0859C25.5435 26.2678 26 25.1582 26 24.0012V15.2765C26 14.1195 25.5435 13.0099 24.7308 12.1918C23.9181 11.3737 22.8159 10.9141 21.6667 10.9141H3.25C2.96268 10.9141 2.68713 10.7992 2.48397 10.5946C2.2808 10.3901 2.16667 10.1127 2.16667 9.82346ZM2.16667 22.9106V12.9099C2.50467 13.0298 2.87083 13.0953 3.25 13.0953H21.6667C22.2413 13.0953 22.7924 13.3251 23.1987 13.7341C23.6051 14.1432 23.8333 14.698 23.8333 15.2765V24.0012C23.8333 24.5797 23.6051 25.1345 23.1987 25.5436C22.7924 25.9526 22.2413 26.1824 21.6667 26.1824H5.41667C4.55471 26.1824 3.72806 25.8377 3.11857 25.2242C2.50908 24.6106 2.16667 23.7784 2.16667 22.9106Z" fill="#1C1C1C"/>
</svg>
