<svg width="30" height="30" viewBox="0 0 30 30" fill="none" xmlns="http://www.w3.org/2000/svg">
<path d="M28 15H25.1111C23.5156 15 22.2222 16.2934 22.2222 17.8889V20.7778C22.2222 22.3733 23.5156 23.6667 25.1111 23.6667C26.7066 23.6667 28 22.3733 28 20.7778V15ZM28 15C28 7.8203 22.1797 2 15 2C7.8203 2 2 7.8203 2 15M2 15V20.7778C2 22.3733 3.2934 23.6667 4.88889 23.6667C6.48438 23.6667 7.77778 22.3733 7.77778 20.7778V17.8889C7.77778 16.2934 6.48438 15 4.88889 15H2ZM28 17.8889V23.6667C28 26.5556 27.037 28 25.1111 28C23.1852 28 20.7778 28 17.8889 28" stroke="#1C1C1C" stroke-width="2.5" stroke-linecap="round" stroke-linejoin="round"/>
</svg>
