<svg width="22" height="23" viewBox="0 0 22 23" fill="none" xmlns="http://www.w3.org/2000/svg">
<g clip-path="url(#clip0_5035_4991)">
<path d="M13.2454 5.22593H16.063L16.0633 8.5132L17.4917 6.29523V4.43602C17.4917 4.32246 17.4465 4.21356 17.3662 4.13289L13.7224 0.489222C13.6421 0.408974 13.5332 0.36377 13.4194 0.36377H2.15298C1.44406 0.36377 0.867188 0.940379 0.867188 1.64936V21.0782C0.867188 21.7871 1.44401 22.3638 2.15298 22.3638H16.2059C16.9148 22.3638 17.4916 21.7871 17.4916 21.0782V15.5621L16.0635 17.7475L16.0637 20.9351H2.29583V1.79241H12.7147V4.6952C12.7147 4.98848 12.9523 5.22593 13.2454 5.22593Z" fill="white"/>
<path d="M19.0857 10.5843L18.4953 10.1986C18.3989 10.1356 18.2699 10.1626 18.2069 10.259L15.028 15.1234L14.4167 14.724L17.5956 9.85954C17.6586 9.76311 17.6316 9.63409 17.5352 9.57113L16.9448 9.18535C16.8485 9.12239 16.7193 9.14941 16.6564 9.24579L11.8966 16.5295C11.8764 16.5605 11.8648 16.5963 11.8629 16.6332L11.7385 19.161C11.7349 19.2348 11.7707 19.3052 11.8327 19.3455C11.8946 19.386 11.9735 19.3906 12.0395 19.3576L14.3046 18.2287C14.3378 18.2123 14.3659 18.1871 14.3862 18.1561L19.1459 10.8724C19.2091 10.7764 19.182 10.6473 19.0857 10.5843Z" fill="white"/>
<path d="M21.0358 7.59993L18.895 6.20094C18.7988 6.13803 18.6696 6.16505 18.6066 6.26138L17.1629 8.47076C17.1 8.56714 17.1269 8.69631 17.2233 8.75927L19.3641 10.1582C19.4603 10.2211 19.5896 10.1941 19.6525 10.0977L21.0962 7.88839C21.1593 7.79201 21.1322 7.66289 21.0358 7.59993Z" fill="white"/>
<path d="M4.37537 4.94508H8.46109C8.75039 4.94508 8.9849 4.71052 8.9849 4.42127C8.9849 4.13202 8.75039 3.89746 8.46109 3.89746H4.37537C4.08607 3.89746 3.85156 4.13202 3.85156 4.42127C3.85156 4.71052 4.08618 4.94508 4.37537 4.94508Z" fill="white"/>
<path d="M12.1278 7.04041C12.1278 6.75116 11.8931 6.5166 11.6039 6.5166H4.37537C4.08607 6.5166 3.85156 6.75116 3.85156 7.04041C3.85156 7.32966 4.08607 7.56422 4.37537 7.56422H11.6039C11.8932 7.56422 12.1278 7.32966 12.1278 7.04041Z" fill="white"/>
<path d="M4.37537 10.1834H8.46109C8.75039 10.1834 8.9849 9.9488 8.9849 9.65955C8.9849 9.3703 8.75039 9.13574 8.46109 9.13574H4.37537C4.08607 9.13574 3.85156 9.3703 3.85156 9.65955C3.85156 9.9488 4.08618 10.1834 4.37537 10.1834Z" fill="white"/>
<path d="M4.37537 12.802H8.46109C8.75039 12.802 8.9849 12.5675 8.9849 12.2782C8.9849 11.989 8.75039 11.7544 8.46109 11.7544H4.37537C4.08607 11.7544 3.85156 11.989 3.85156 12.2782C3.85156 12.5675 4.08618 12.802 4.37537 12.802Z" fill="white"/>
<path d="M4.59952 19.5716C4.49753 19.7034 4.68149 19.8902 4.78474 19.7566C5.11018 19.3362 5.37894 18.8834 5.6034 18.4055C5.74346 18.4934 5.92737 18.4758 6.07823 18.4162C6.29566 18.3305 6.47999 18.165 6.65552 18.0152C6.75929 17.9267 6.88008 17.7805 7.02371 17.7665C7.13339 17.756 7.28153 17.8443 7.39116 17.8631C7.67763 17.9119 8.01224 17.829 8.28881 17.7607C8.55129 17.6959 8.85866 17.5934 9.01313 17.3557C9.10548 17.2137 8.87862 17.0825 8.78701 17.2237C8.66333 17.4139 8.36136 17.4732 8.15728 17.5236C7.91774 17.5828 7.63981 17.6412 7.39294 17.5991C7.20688 17.5675 7.05639 17.455 6.8651 17.5402C6.60885 17.6544 6.4131 17.8943 6.18682 18.0564C6.08556 18.1289 5.96985 18.1985 5.8432 18.2083C5.79108 18.2124 5.7486 18.1932 5.71329 18.1614C5.74116 18.0967 5.76882 18.0318 5.79516 17.9663C6.05057 17.3322 6.16607 16.6884 6.28461 16.0205C6.34485 15.6811 6.44505 15.1464 5.95864 15.1138C5.52886 15.0851 5.15743 15.705 5.02008 16.0317C4.89725 16.3239 4.88358 16.6633 4.89295 16.9753C4.89877 17.1697 4.96875 17.3716 5.02034 17.5726C4.6079 17.6388 4.24437 18.0554 4.30807 18.4683C4.37077 18.8747 4.87892 18.6649 5.06869 18.5145C5.26077 18.3623 5.32295 18.1722 5.32499 17.9672C5.36328 18.0303 5.39529 18.106 5.42839 18.1768C5.20708 18.6733 4.92962 19.1451 4.59952 19.5716ZM5.05858 18.0892C5.01982 18.2619 4.80124 18.4325 4.62911 18.4484C4.49371 18.461 4.57631 18.2191 4.60308 18.1651C4.6871 17.9952 4.89526 17.8844 5.07026 17.8366C5.07844 17.9218 5.07713 18.0063 5.05858 18.0892ZM5.27733 17.5821C5.23275 17.3738 5.17089 17.1646 5.15486 16.9753C5.12385 16.61 5.18875 16.2271 5.36994 15.9076C5.48313 15.7079 5.71387 15.4019 5.95864 15.3757C6.17723 15.3525 6.04392 15.8841 6.02501 15.9909C5.9665 16.3206 5.92475 16.6478 5.8432 16.9737C5.76745 17.2764 5.67149 17.5761 5.55673 17.8692C5.4957 17.7173 5.41624 17.6201 5.27733 17.5821Z" fill="white"/>
</g>
<defs>
<clipPath id="clip0_5035_4991">
<rect width="22" height="22" fill="white" transform="translate(0 0.36377)"/>
</clipPath>
</defs>
</svg>
