<svg width="26" height="26" viewBox="0 0 26 26" fill="none" xmlns="http://www.w3.org/2000/svg">
<path d="M20.0404 19.4987C20.0404 20.6953 19.0703 21.6654 17.8737 21.6654C16.677 21.6654 15.707 20.6953 15.707 19.4987M20.0404 19.4987C20.0404 18.302 19.0703 17.332 17.8737 17.332C16.677 17.332 15.707 18.302 15.707 19.4987M20.0404 19.4987H23.2904M15.707 19.4987H14.6237M14.6237 19.4987H9.20703M14.6237 19.4987V7.7987C14.6237 6.58526 14.6237 5.97852 14.3875 5.51505C14.1799 5.10736 13.8484 4.77591 13.4407 4.56819C12.9772 4.33203 12.3705 4.33203 11.157 4.33203H6.1737C4.96026 4.33203 4.35352 4.33203 3.89005 4.56819C3.48236 4.77591 3.15091 5.10736 2.94319 5.51505C2.70703 5.97852 2.70703 6.58526 2.70703 7.7987V17.332C2.70703 18.5287 3.67708 19.4987 4.8737 19.4987M14.6237 19.4987V8.66536H18.957L22.207 12.9987M9.20703 19.4987C9.20703 20.6953 8.23698 21.6654 7.04036 21.6654C5.84375 21.6654 4.8737 20.6953 4.8737 19.4987M9.20703 19.4987C9.20703 18.302 8.23698 17.332 7.04036 17.332C5.84375 17.332 4.8737 18.302 4.8737 19.4987M22.207 12.9987V19.4987M22.207 12.9987H14.6237" stroke="#1C1C1C" stroke-width="2" stroke-linecap="round" stroke-linejoin="round"/>
</svg>
