<svg width="96" height="96" viewBox="0 0 96 96" fill="none" xmlns="http://www.w3.org/2000/svg">
<path fill-rule="evenodd" clip-rule="evenodd" d="M26 7C26 5.34316 24.6568 4 23 4C21.3432 4 20 5.34316 20 7V87C20 88.6568 21.3432 90 23 90C24.6568 90 26 88.6568 26 87V54.4V14.4V7Z" fill="#474A56"/>
<path d="M53.3944 15.1579L52.5796 14.832C46.3284 12.3315 39.4848 11.7032 32.8827 13.0236L26 14.4002V54.4L32.8827 53.0236C39.4848 51.7032 46.3284 52.3316 52.5796 54.832C59.354 57.5416 66.8096 58.0476 73.888 56.278L74.7456 56.0636C77.246 55.4388 79 53.192 79 50.6152V21.1469C79 18.0247 76.066 15.7337 73.0368 16.491C66.512 18.1222 59.6388 17.6557 53.3944 15.1579Z" fill="#FF6347"/>
</svg>
