<svg width="1440" height="966" viewBox="0 0 1440 966" fill="none" xmlns="http://www.w3.org/2000/svg">
<path d="M-418.1 212.461C-600.948 331.236 -485.83 538.204 -377.671 670.752C-244.136 833.855 -77.4459 994.945 -48.1716 1180.56C-16.9119 1376.49 -10.3985 1711.62 127.228 1900C224.59 2032.93 451.839 2169.03 675.066 2180.49C835.947 2188.74 987.524 2105.28 1115.77 2049.4C1257.63 1987.26 1690.75 2158.08 1775.05 2062.34C1899.05 1921.28 1827.2 1753.21 1766.11 1620.52C1706.34 1490.23 1605.1 1369.88 1470.17 1261.96C1420.47 1222.26 1365.02 1189.7 1320.96 1152.15C1284.13 1120.77 1257.18 1085.95 1248.03 1040.21C1233.42 967.953 1220 900.399 1200.74 834.635C1184.51 779.938 1165.67 726.965 1134.75 671.515C1120.26 645.697 1099.73 618.872 1075.03 589.048C1013.1 514.825 911.904 442.535 781.225 377.786C608.142 292.288 438.872 223.469 272.881 174.786C6.69988 97.2791 -270.933 116.929 -418.1 212.461Z" stroke="url(#paint0_linear_341_7050)" stroke-opacity="0.2" stroke-width="6"/>
<path d="M-443.736 186.999C-636.614 312.225 -515.259 530.657 -401.007 670.482C-260.399 842.771 -84.4506 1012.46 -53.1909 1208.39C-20.328 1415.09 -45.5516 1738.6 99.8169 1937.14C202.544 2077.53 441.185 2208.65 676.583 2220.96C828.864 2228.78 973.59 2159.82 1098.6 2110.98C1243.03 2054.77 1618.45 2180.84 1710.76 2090.15C1850.74 1952.69 1822.63 1786.41 1791.05 1645.72C1760.67 1509.5 1683.55 1381.33 1565.53 1265.92C1522.43 1223.54 1472.56 1187.32 1429.7 1147.51C1394.38 1114.59 1366.03 1079 1349.61 1034.98C1323.09 963.731 1292.32 898.305 1253.56 834.559C1221.75 782.313 1186.59 732.449 1142.18 680.718C1121.84 656.922 1095.1 632.1 1064.57 603.834C991.51 536.47 883.713 466.859 749.547 400.074C581.384 316.685 416.401 241.354 249.283 179.611C3.55794 88.5273 -280.221 80.9299 -443.736 186.999Z" stroke="url(#paint1_linear_341_7050)" stroke-opacity="0.2" stroke-width="6"/>
<path d="M-469.375 161.537C-672.284 293.214 -544.691 523.11 -424.346 670.213C-276.295 851.474 -91.0999 1030 -58.5597 1235.98C-24.0935 1453.43 -81.4004 1765.09 71.6863 1974.23C179.79 2121.87 429.454 2248.21 677.392 2261.17C821.074 2268.54 958.948 2214.09 1080.71 2172.51C1228.07 2122.26 1545.8 2203.34 1645.37 2118.14C1801.68 1984.54 1816.24 1819.75 1814.89 1671.09C1813.56 1528.93 1760.91 1392.96 1659.82 1269.6C1622.96 1224.76 1579.04 1184.66 1537.74 1142.37C1503.94 1107.9 1473.83 1071.53 1450.84 1029.49C1412.4 959.492 1364.67 895.517 1306.02 834.233C1258.63 784.67 1207.86 737.952 1149.63 689.458C1123.8 667.702 1091.22 644.67 1054.51 617.944C971.043 557.243 856.26 490.756 717.901 421.667C554.66 340.388 392.84 259.415 225.372 183.491C-0.733103 81.1095 -289.883 45.1438 -469.375 161.537Z" stroke="url(#paint2_linear_341_7050)" stroke-opacity="0.2" stroke-width="6"/>
<path d="M-494.664 136.326C-707.604 274.453 -573.762 515.582 -447.682 669.944C-292.187 860.178 -98.104 1047.52 -63.5785 1263.81C-27.1508 1492.05 -116.541 1791.84 43.9176 2011.35C157.397 2166.23 418.431 2288.04 678.205 2301.38C813.646 2308.33 944.297 2268.6 1062.83 2234.05C1213.1 2189.99 1473.5 2226.1 1580.35 2146.15C1753.33 2016.65 1810.24 1852.87 1839.11 1696.24C1866.48 1547.9 1838.65 1404.15 1754.83 1273.31C1724.22 1225.77 1685.87 1182.01 1646.12 1137.49C1613.85 1101.24 1581.98 1064.31 1552.42 1024.26C1501.7 955.484 1437.72 893.229 1358.85 833.925C1295.88 786.814 1229.16 742.992 1157.45 698.218C1125.77 678.483 1087.34 657.241 1044.43 632.286C950.949 577.804 828.452 514.636 686.616 443.279C528.297 364.11 368.53 278.134 202.169 187.641C-6.48955 74.3134 -299.54 9.35836 -494.664 136.326Z" stroke="url(#paint3_linear_341_7050)" stroke-opacity="0.2" stroke-width="6"/>
<path d="M-520.3 110.864C-743.283 255.673 -602.845 508.284 -470.671 669.925C-307.734 869.131 -104.404 1065.3 -68.6099 1291.88C-30.5789 1530.88 -151.706 1819.06 16.4827 2048.95C134.969 2211.28 407.395 2328.11 679.71 2342.08C806.552 2348.59 930.674 2324.08 1045.99 2296.1C1199.52 2258.71 1402.24 2249.61 1516.38 2174.67C1706.01 2049.74 1804.92 1886.49 1864.01 1722.13C1919.72 1567.58 1916.71 1416.28 1850.17 1277.74C1825.8 1227.5 1793.03 1180.08 1754.83 1133.31C1723.72 1095.5 1690.09 1057.79 1653.98 1019.48C1590.96 952.402 1510.41 890.922 1411.64 834.312C1333.47 789.438 1250.78 748.744 1165.22 707.902C1128.04 690.207 1083.79 670.523 1034.32 647.322C930.831 598.827 800.608 539.21 655.284 465.816C501.909 388.294 342.727 297.937 178.942 192.252C-13.3454 67.9243 -309.199 -26.4281 -520.3 110.864Z" stroke="url(#paint4_linear_341_7050)" stroke-opacity="0.2" stroke-width="6"/>
<path d="M1173.04 716.43C956.243 635.654 555.467 499.699 155.723 196.633C-22.0077 61.6761 -318.502 -62.1949 -545.939 85.4032C-778.952 236.662 -632.277 500.738 -494.369 669.638C-324.347 877.798 -111.77 1082.8 -73.9908 1319.7C-33.9983 1569.48 -187.209 1845.79 -11.6481 2086.04C112.214 2255.61 396.021 2367.69 680.519 2382.29C965.017 2396.89 1244.02 2322.52 1451.01 2202.43C1658 2082.1 1797.85 1919.1 1887.88 1747.04C2070.34 1397.7 1960.14 1059.8 1464.13 833.524C1370.76 790.888 1272.1 753.321 1173.04 716.43Z" stroke="url(#paint5_linear_341_7050)" stroke-opacity="0.2" stroke-width="6"/>
<defs>
<linearGradient id="paint0_linear_341_7050" x1="714.037" y1="165.071" x2="610.782" y2="2177.19" gradientUnits="userSpaceOnUse">
<stop stop-color="#FF6347"/>
<stop offset="1" stop-color="#7FABEC" stop-opacity="0"/>
</linearGradient>
<linearGradient id="paint1_linear_341_7050" x1="684.569" y1="149.857" x2="578.546" y2="2215.93" gradientUnits="userSpaceOnUse">
<stop stop-color="#FF6347"/>
<stop offset="1" stop-color="#7FABEC" stop-opacity="0"/>
</linearGradient>
<linearGradient id="paint2_linear_341_7050" x1="665.551" y1="131.761" x2="556.596" y2="2254.97" gradientUnits="userSpaceOnUse">
<stop stop-color="#FF6347"/>
<stop offset="1" stop-color="#7FABEC" stop-opacity="0"/>
</linearGradient>
<linearGradient id="paint3_linear_341_7050" x1="664.936" y1="112.123" x2="552.921" y2="2294.95" gradientUnits="userSpaceOnUse">
<stop stop-color="#FF6347"/>
<stop offset="1" stop-color="#7FABEC" stop-opacity="0"/>
</linearGradient>
<linearGradient id="paint4_linear_341_7050" x1="675.098" y1="91.2264" x2="559.908" y2="2335.93" gradientUnits="userSpaceOnUse">
<stop stop-color="#FF6347"/>
<stop offset="1" stop-color="#7FABEC" stop-opacity="0"/>
</linearGradient>
<linearGradient id="paint5_linear_341_7050" x1="692.248" y1="69.3966" x2="573.84" y2="2376.82" gradientUnits="userSpaceOnUse">
<stop stop-color="#FF6347"/>
<stop offset="1" stop-color="#7FABEC" stop-opacity="0"/>
</linearGradient>
</defs>
</svg>
