<svg width="23" height="25" viewBox="0 0 23 25" fill="none" xmlns="http://www.w3.org/2000/svg">
<path d="M12.2101 5.53707C12.1795 4.96454 11.5944 5.06194 11.0234 5.06194C11.4452 5.17426 11.8441 5.33053 12.2101 5.53707Z" fill="#1C1C1C"/>
<path d="M6.10581 4.10156C3.88946 4.10156 2.86931 6.90688 4.64108 8.3178C5.24506 6.70504 6.44743 5.54703 8.02368 5.08995C7.59249 4.49385 6.89586 4.10156 6.10581 4.10156Z" fill="#1C1C1C"/>
<path d="M1.52836 7.87923C1.61868 8.16907 1.7357 8.44711 1.87473 8.71055L1.14668 9.43899C0.95117 9.63451 0.95117 9.95185 1.14668 10.1478L2.42996 11.4315C2.52342 11.5249 2.65147 11.5775 2.78493 11.5775C2.91693 11.5775 3.04412 11.5249 3.13919 11.4315L3.86643 10.703C3.97557 10.7608 4.09653 10.7962 4.20956 10.846C4.20956 10.8377 4.20876 10.8291 4.20876 10.8208C4.20876 10.2255 4.27713 9.66394 4.39886 9.13662C3.52082 8.57152 2.93493 7.59062 2.93493 6.47069C2.93493 4.72128 4.358 3.29781 6.107 3.29781C7.29131 3.29781 8.31384 3.95712 8.85967 4.92038C9.44242 4.84811 9.98981 4.84811 10.6487 4.97262C10.564 4.71622 10.4642 4.46528 10.3393 4.23006L11.0674 3.50126C11.1623 3.4074 11.2149 3.27975 11.2149 3.14705C11.2149 3.0143 11.1623 2.8867 11.0674 2.79284L9.78479 1.50997C9.68668 1.4118 9.55863 1.3631 9.43063 1.3631C9.30258 1.3631 9.17458 1.4118 9.07718 1.50997L8.34681 2.23877C8.08297 2.09898 7.80573 1.98196 7.51519 1.89361V0.86395C7.51519 0.58752 7.29212 0.363281 7.01488 0.363281H5.19993C4.92426 0.363281 4.6988 0.58752 4.6988 0.86395V1.89356C4.40902 1.98191 4.13173 2.09893 3.86709 2.23872L3.13919 1.51072C3.04098 1.41256 2.91298 1.36386 2.78493 1.36386C2.65693 1.36386 2.52818 1.41256 2.43077 1.51032L1.14668 2.7932C1.05323 2.88746 1.00063 3.01465 1.00063 3.14781C1.00063 3.28092 1.05323 3.40816 1.14668 3.50202L1.87473 4.23042C1.73565 4.49431 1.61868 4.77195 1.52997 5.06173H0.501124C0.223885 5.06173 0 5.28632 0 5.56316V7.37816C0 7.65419 0.223885 7.87923 0.501124 7.87923H1.52836Z" fill="#1C1C1C"/>
<path d="M17.2521 17.5906C18.0548 17.1504 18.6061 16.3078 18.6061 15.3299C18.6061 13.9029 17.4446 12.7422 16.0176 12.7422C15.5158 12.7422 15.0508 12.8922 14.6534 13.1403C14.4155 14.0875 14.0408 14.9934 13.5508 15.7803C14.94 16.0415 16.2147 16.6741 17.2521 17.5906Z" fill="#1C1C1C"/>
<path d="M22.6054 14.3515C22.6054 14.0527 22.3627 13.8108 22.0651 13.8108H20.9546C20.8588 13.4978 20.7316 13.1978 20.5808 12.9131L21.3669 12.127C21.469 12.0257 21.5255 11.8882 21.5255 11.7449C21.5255 11.6015 21.469 11.4641 21.3669 11.3624L19.983 9.97822C19.8778 9.87252 19.7388 9.81952 19.6007 9.81952C19.4624 9.81952 19.3242 9.87252 19.219 9.97822L18.4313 10.7647C18.1469 10.6139 17.8477 10.4875 17.5335 10.3921V9.28158C17.5335 8.98315 17.2924 8.74121 16.994 8.74121H15.0361C14.9049 8.74121 14.7895 8.79381 14.6953 8.87159C14.8602 9.47315 14.9505 10.1254 14.9505 10.8213C14.9505 11.263 14.916 11.7115 14.8516 12.1575C15.216 12.0232 15.6039 11.9389 16.0147 11.9389C17.8854 11.9389 19.4074 13.4605 19.4074 15.3308C19.4074 16.5262 18.7831 17.5738 17.8461 18.1782C18.5279 18.9258 19.0697 19.8129 19.4224 20.8067C19.4804 20.8268 19.5409 20.8413 19.6014 20.8413C19.7396 20.8413 19.8779 20.7887 19.9839 20.683L21.3685 19.2988C21.4699 19.1975 21.5256 19.0601 21.5256 18.9167C21.5256 18.7734 21.4699 18.636 21.3685 18.5342L20.5808 17.7477C20.7316 17.4635 20.8588 17.1634 20.9547 16.8501H22.0651C22.208 16.8501 22.3471 16.7935 22.4476 16.6914C22.5489 16.5904 22.6063 16.4527 22.6063 16.3093L22.6054 14.3515Z" fill="#1C1C1C"/>
<path d="M18.3199 21.2953C17.4803 18.8249 15.2617 17.1258 12.7006 16.8945C11.843 17.8027 10.7812 18.3789 9.57871 18.3789C8.37716 18.3789 7.31453 17.8028 6.45772 16.8945C3.89511 17.1258 1.67644 18.8249 0.836829 21.2957L0.372724 22.6618C0.23997 23.0549 0.30354 23.488 0.54548 23.8253C0.787369 24.1627 1.17693 24.3629 1.59157 24.3629H17.5651C17.9805 24.3629 18.3701 24.1627 18.612 23.8253C18.8531 23.488 18.9176 23.0549 18.784 22.6618L18.3199 21.2953Z" fill="#1C1C1C"/>
<path d="M5.41406 10.8212C5.41406 13.8853 7.27933 17.1732 9.57882 17.1732C11.8792 17.1732 13.7444 13.8853 13.7444 10.8212C13.7444 4.46955 5.41406 4.45696 5.41406 10.8212Z" fill="#1C1C1C"/>
</svg>
