<svg width="26" height="25" viewBox="0 0 26 25" fill="none" xmlns="http://www.w3.org/2000/svg">
<path d="M0.0293806 22.3679C0.0332129 22.3773 0.0353419 22.3867 0.0391742 22.3961C0.0430065 22.4056 0.0421548 22.4069 0.0447097 22.412L0.896323 24.1263C0.931693 24.1975 0.986087 24.2574 1.0534 24.2993C1.12072 24.3412 1.19829 24.3633 1.27742 24.3633H6.3871C6.46623 24.3633 6.5438 24.3412 6.61111 24.2993C6.67843 24.2574 6.73282 24.1975 6.76819 24.1263L7.61981 22.412C7.62236 22.4069 7.62279 22.4013 7.62534 22.3961C7.6279 22.391 7.6313 22.3773 7.63514 22.3679C7.65084 22.3255 7.65975 22.281 7.66154 22.2359C7.66154 22.2307 7.66452 22.226 7.66452 22.2204V12.7919C7.66452 12.7863 7.66154 12.7816 7.66154 12.7764C7.65975 12.7313 7.65084 12.6867 7.63514 12.6444C7.6313 12.635 7.62917 12.6256 7.62534 12.6161C7.62151 12.6067 7.62236 12.6054 7.61981 12.6003L6.76819 10.886C6.73282 10.8148 6.67843 10.7548 6.61111 10.713C6.5438 10.6711 6.46623 10.649 6.3871 10.649H1.27742C1.19829 10.649 1.12072 10.6711 1.0534 10.713C0.986087 10.7548 0.931693 10.8148 0.896323 10.886L0.0447097 12.6003C0.0421548 12.6054 0.041729 12.611 0.0391742 12.6161C0.0366194 12.6213 0.0332129 12.635 0.0293806 12.6444C0.013721 12.6866 0.00481018 12.731 0.00298063 12.776C0.00298063 12.7816 0 12.7863 0 12.7919V22.2204C0 22.226 0.00298063 22.2307 0.00298063 22.2363C0.00481018 22.2813 0.013721 22.3257 0.0293806 22.3679ZM6.12395 23.5061H1.54057L1.11476 22.649H6.54976L6.12395 23.5061ZM1.54057 11.5061H6.12395L6.54976 12.3633H1.11476L1.54057 11.5061ZM0.851613 13.2204H6.8129V14.216L6.13757 14.4881C5.4045 14.7837 4.62197 14.9353 3.83226 14.9347C2.93425 14.9339 2.04442 15.1064 1.21099 15.443L0.851613 15.5874V13.2204ZM0.851613 16.5106L1.52694 16.2384C2.26001 15.9428 3.04254 15.7912 3.83226 15.7919C4.73027 15.7927 5.6201 15.6201 6.45352 15.2836L6.8129 15.1391V18.5017L6.13757 18.7739C5.4045 19.0695 4.62197 19.221 3.83226 19.2204C2.93425 19.2196 2.04442 19.3921 1.21099 19.7287L0.851613 19.8731V16.5106ZM0.851613 20.7963L1.52694 20.5241C2.26001 20.2285 3.04254 20.0769 3.83226 20.0776C4.73027 20.0784 5.6201 19.9058 6.45352 19.5693L6.8129 19.4249V21.7919H0.851613V20.7963Z" fill="white"/>
<path d="M9.79355 24.3633H14.9032C15.242 24.3633 15.5669 24.2278 15.8065 23.9867C16.0461 23.7456 16.1806 23.4186 16.1806 23.0776V13.2839C16.1798 11.7641 15.795 10.2696 15.0625 8.94071C14.4003 7.73925 14.0524 6.38808 14.0516 5.01414V0.791853C14.0516 0.678188 14.0068 0.56918 13.9269 0.488807C13.847 0.408434 13.7387 0.363281 13.6258 0.363281H11.071C10.958 0.363281 10.8497 0.408434 10.7699 0.488807C10.69 0.56918 10.6452 0.678188 10.6452 0.791853V5.01414C10.6443 6.38808 10.2965 7.73925 9.6343 8.94071C8.90178 10.2696 8.51701 11.7641 8.51613 13.2839V23.0776C8.51613 23.4186 8.65071 23.7456 8.89028 23.9867C9.12984 24.2278 9.45476 24.3633 9.79355 24.3633ZM15.329 13.2839V19.649H11.071V13.2204H15.3269C15.329 13.2414 15.329 13.2633 15.329 13.2839ZM11.4968 1.22042H13.2V2.07757H11.4968V1.22042ZM9.36774 13.2839C9.36857 11.9099 9.71642 10.5587 10.3786 9.35728C11.1111 8.02839 11.4959 6.53385 11.4968 5.01414V2.93471H13.2V5.01414C13.2009 6.53385 13.5857 8.02839 14.3182 9.35728C14.8294 10.2865 15.1541 11.3079 15.2737 12.3633H10.6452C10.5322 12.3633 10.4239 12.4084 10.3441 12.4888C10.2642 12.5692 10.2194 12.6782 10.2194 12.7919V20.0776C10.2194 20.1912 10.2642 20.3002 10.3441 20.3806C10.4239 20.461 10.5322 20.5061 10.6452 20.5061H15.329V23.0776C15.329 23.1912 15.2842 23.3002 15.2043 23.3806C15.1245 23.461 15.0162 23.5061 14.9032 23.5061H9.79355C9.68062 23.5061 9.57231 23.461 9.49246 23.3806C9.4126 23.3002 9.36774 23.1912 9.36774 23.0776V13.2839Z" fill="white"/>
<path d="M18.7355 24.3633C18.9751 24.3631 19.2119 24.3122 19.4306 24.2137C19.6493 24.1153 19.845 23.9716 20.0048 23.792L20.0133 23.7826C20.1732 23.965 20.3697 24.1111 20.59 24.2111C20.8102 24.3112 21.0491 24.363 21.2907 24.363C21.5324 24.363 21.7713 24.3112 21.9915 24.2111C22.2118 24.1111 22.4083 23.965 22.5682 23.7826C22.797 24.0435 23.0994 24.2282 23.435 24.312C23.7707 24.3958 24.1238 24.3748 24.4473 24.2518C24.7708 24.1287 25.0494 23.9095 25.2461 23.6232C25.4428 23.3369 25.5482 22.9971 25.5484 22.649V11.0776C25.5468 10.2445 25.3045 9.4298 24.8508 8.73295C24.3972 8.0361 23.7518 7.48718 22.9935 7.15314V6.79185H23.4194V5.93471H22.9935V5.07757C22.9935 4.85024 22.9038 4.63222 22.7441 4.47148C22.5844 4.31073 22.3678 4.22042 22.1419 4.22042H20.4387C20.2128 4.22042 19.9962 4.31073 19.8365 4.47148C19.6768 4.63222 19.5871 4.85024 19.5871 5.07757V5.93471H19.1613V6.79185H19.5871V7.15314C18.8288 7.48718 18.1835 8.0361 17.7298 8.73295C17.2762 9.4298 17.0338 10.2445 17.0323 11.0776V22.649C17.0323 23.1037 17.2117 23.5397 17.5311 23.8612C17.8505 24.1827 18.2838 24.3633 18.7355 24.3633ZM20.4387 5.07757H22.1419V5.93471H20.4387V5.07757ZM17.8839 11.0776C17.8853 10.3693 18.1043 9.67878 18.5109 9.10072C18.9175 8.52265 19.4918 8.08533 20.1551 7.84871C20.2381 7.81912 20.3099 7.76436 20.3607 7.69199C20.4115 7.61961 20.4387 7.53317 20.4387 7.44457V6.79185H22.1419V7.44457C22.1419 7.53317 22.1691 7.61961 22.2199 7.69199C22.2707 7.76436 22.3425 7.81912 22.4255 7.84871C23.0888 8.08533 23.6631 8.52265 24.0697 9.10072C24.4764 9.67878 24.6954 10.3693 24.6968 11.0776V11.5061H17.8839V11.0776ZM17.8839 12.3633H24.6968V19.649H17.8839V12.3633ZM17.8839 20.5061H24.6968V22.649C24.6968 22.8763 24.6071 23.0943 24.4473 23.2551C24.2876 23.4158 24.071 23.5061 23.8452 23.5061C23.6193 23.5061 23.4027 23.4158 23.243 23.2551C23.0833 23.0943 22.9935 22.8763 22.9935 22.649C22.9935 22.5353 22.9487 22.4263 22.8688 22.3459C22.789 22.2656 22.6807 22.2204 22.5677 22.2204C22.4548 22.2204 22.3465 22.2656 22.2667 22.3459C22.1868 22.4263 22.1419 22.5353 22.1419 22.649C22.1419 22.8763 22.0522 23.0943 21.8925 23.2551C21.7328 23.4158 21.5162 23.5061 21.2903 23.5061C21.0645 23.5061 20.8478 23.4158 20.6881 23.2551C20.5284 23.0943 20.4387 22.8763 20.4387 22.649C20.4387 22.5353 20.3938 22.4263 20.314 22.3459C20.2341 22.2656 20.1258 22.2204 20.0129 22.2204C19.9 22.2204 19.7917 22.2656 19.7118 22.3459C19.632 22.4263 19.5871 22.5353 19.5871 22.649C19.5871 22.8763 19.4974 23.0943 19.3377 23.2551C19.178 23.4158 18.9613 23.5061 18.7355 23.5061C18.5096 23.5061 18.293 23.4158 18.1333 23.2551C17.9736 23.0943 17.8839 22.8763 17.8839 22.649V20.5061Z" fill="white"/>
</svg>
