<svg width="22" height="23" viewBox="0 0 22 23" fill="none" xmlns="http://www.w3.org/2000/svg">
<path d="M18.2511 13.5632H12.5977V18.4181H18.2511V13.5632Z" fill="#1C1C1C"/>
<path d="M10.3845 13.6365H3.74805V14.3739H10.3845V13.6365Z" fill="#1C1C1C"/>
<path d="M10.3845 17.6072H3.74805V18.3446H10.3845V17.6072Z" fill="#1C1C1C"/>
<path d="M10.3845 15.6221H3.74805V16.3595H10.3845V15.6221Z" fill="#1C1C1C"/>
<path d="M17.8934 0.364014H4.10695C1.8385 0.3644 0.0006875 2.20256 0 4.47067V17.5196C0.00107422 20.195 2.16833 22.3629 4.84438 22.3637H17.156C19.8316 22.3629 21.9993 20.1953 22 17.5196V4.47067C21.9997 2.20256 20.1615 0.3644 17.8934 0.364014ZM19.9721 17.5196C19.9717 18.2995 19.6581 18.9988 19.1472 19.5108C18.6352 20.0217 17.9359 20.3354 17.156 20.3357H4.84438C4.0645 20.3353 3.36484 20.0217 2.85287 19.5108C2.34188 18.9988 2.02864 18.2995 2.02795 17.5196V5.46406H19.9721V17.5196H19.9721Z" fill="#1C1C1C"/>
<path d="M3.82286 11.8755H5.30885C6.15576 11.8755 6.66846 11.5067 6.66846 10.7347C6.66846 10.2684 6.40348 9.94547 6.14425 9.8475V9.83599C6.40352 9.69195 6.59937 9.42697 6.59937 9.00102C6.59937 8.37844 6.20187 7.95825 5.34958 7.95825H3.82286C3.78866 7.95825 3.76562 7.98128 3.76562 8.01583V11.8175C3.76562 11.8524 3.78866 11.8755 3.82286 11.8755ZM4.61254 8.67802C4.61254 8.65533 4.62332 8.64347 4.64709 8.64347H5.24624C5.56851 8.64347 5.75864 8.81054 5.75864 9.09826C5.75864 9.38666 5.56851 9.55948 5.24624 9.55948H4.64709C4.62332 9.55948 4.61254 9.54797 4.61254 9.52494V8.67802ZM4.61254 10.2447C4.61254 10.222 4.62332 10.2105 4.64709 10.2105H5.29162C5.63799 10.2105 5.82198 10.4006 5.82198 10.7006C5.82198 11.0055 5.63799 11.1902 5.29162 11.1902H4.64709C4.62332 11.1902 4.61254 11.1784 4.61254 11.1553V10.2447Z" fill="#1C1C1C"/>
<path d="M7.79947 11.8754H10.352C10.3862 11.8754 10.4092 11.8524 10.4092 11.8174V11.1783C10.4092 11.1434 10.3862 11.1207 10.352 11.1207H8.62361C8.60023 11.1207 8.58906 11.1092 8.58906 11.0858V8.01583C8.58906 7.98128 8.56637 7.95825 8.53144 7.95825H7.79942C7.76483 7.95825 7.74219 7.98128 7.74219 8.01583V11.8175C7.74219 11.8523 7.76488 11.8754 7.79947 11.8754Z" fill="#1C1C1C"/>
<path d="M12.5773 11.9384C13.2632 11.9384 13.8044 11.6219 14.0061 10.9881C14.0925 10.7174 14.1152 10.4985 14.1152 9.91658C14.1152 9.3347 14.0925 9.11578 14.0061 8.84499C13.8044 8.21167 13.2632 7.89478 12.5773 7.89478C11.8917 7.89478 11.3502 8.21167 11.1489 8.84499C11.0621 9.11578 11.0391 9.3347 11.0391 9.91658C11.0391 10.4985 11.0621 10.7174 11.1489 10.9881C11.3502 11.6219 11.8917 11.9384 12.5773 11.9384ZM11.9608 9.07547C12.0472 8.80472 12.255 8.64342 12.5773 8.64342C12.8999 8.64342 13.1073 8.80472 13.1937 9.07547C13.2398 9.21409 13.257 9.40349 13.257 9.91663C13.257 10.429 13.2398 10.6195 13.1937 10.7574C13.1073 11.0285 12.8999 11.1902 12.5773 11.1902C12.255 11.1902 12.0472 11.0285 11.9608 10.7574C11.9151 10.6195 11.8974 10.429 11.8974 9.91663C11.8974 9.40349 11.9151 9.21409 11.9608 9.07547Z" fill="#1C1C1C"/>
<path d="M16.6696 11.9384C17.3606 11.9384 17.9022 11.5873 18.0984 10.959C18.1671 10.7462 18.1956 10.4236 18.1956 10.0779V9.75489C18.1956 9.72103 18.1726 9.69762 18.1384 9.69762H16.7906C16.7557 9.69762 16.7327 9.72103 16.7327 9.75489V10.3087C16.7327 10.3429 16.7557 10.3659 16.7906 10.3659H17.3203C17.3433 10.3659 17.3548 10.3778 17.3548 10.4005C17.3548 10.5672 17.3375 10.6885 17.3087 10.7868C17.228 11.0458 16.9746 11.1901 16.6808 11.1901C16.3409 11.1901 16.1274 11.0284 16.0409 10.7574C15.9952 10.6194 15.978 10.4289 15.978 9.91658C15.978 9.40349 15.9952 9.2195 16.0409 9.08123C16.1274 8.81044 16.3352 8.64338 16.6696 8.64338C16.9919 8.64338 17.1874 8.78165 17.3433 9.04664C17.3548 9.07543 17.3836 9.08699 17.4243 9.07543L18.0404 8.8162C18.0746 8.79892 18.0811 8.76438 18.0634 8.72944C17.8787 8.257 17.4009 7.89478 16.6696 7.89478C15.9721 7.89478 15.4306 8.21167 15.229 8.84499C15.1425 9.11578 15.1191 9.3347 15.1191 9.91658C15.1191 10.4985 15.1426 10.7174 15.229 10.9881C15.4306 11.6219 15.9722 11.9384 16.6696 11.9384Z" fill="#1C1C1C"/>
</svg>
