<svg width="26" height="27" viewBox="0 0 26 27" fill="none" xmlns="http://www.w3.org/2000/svg">
<g clip-path="url(#clip0_4250_5411)">
<path fill-rule="evenodd" clip-rule="evenodd" d="M19.5 10.1135C18.603 10.1135 17.875 10.8415 17.875 11.7385C17.875 12.6355 18.603 13.3635 19.5 13.3635C20.397 13.3635 21.125 12.6355 21.125 11.7385C21.125 10.8415 20.397 10.1135 19.5 10.1135ZM13 21.4885C12.051 21.4885 11.1345 21.378 10.2537 21.1903L6.4285 23.4897L6.47969 19.7205C3.54738 17.9574 1.625 15.0422 1.625 11.7385C1.625 6.35409 6.71775 1.98853 13 1.98853C19.2822 1.98853 24.375 6.35409 24.375 11.7385C24.375 17.1238 19.2822 21.4885 13 21.4885ZM13 0.363525C5.82075 0.363525 0 5.45709 0 11.7385C0 15.329 1.90531 18.5262 4.875 20.6102V26.3635L10.5698 22.908C11.3579 23.038 12.1688 23.1135 13 23.1135C20.1793 23.1135 26 18.0208 26 11.7385C26 5.45709 20.1793 0.363525 13 0.363525ZM6.5 10.1135C5.603 10.1135 4.875 10.8415 4.875 11.7385C4.875 12.6355 5.603 13.3635 6.5 13.3635C7.397 13.3635 8.125 12.6355 8.125 11.7385C8.125 10.8415 7.397 10.1135 6.5 10.1135ZM13 10.1135C12.103 10.1135 11.375 10.8415 11.375 11.7385C11.375 12.6355 12.103 13.3635 13 13.3635C13.897 13.3635 14.625 12.6355 14.625 11.7385C14.625 10.8415 13.897 10.1135 13 10.1135Z" fill="#1C1C1C"/>
</g>
<defs>
<clipPath id="clip0_4250_5411">
<rect width="26" height="26" fill="white" transform="translate(0 0.363525)"/>
</clipPath>
</defs>
</svg>
