<svg width="26" height="26" viewBox="0 0 26 26" fill="none" xmlns="http://www.w3.org/2000/svg">
<path fill-rule="evenodd" clip-rule="evenodd" d="M20.0417 11.9167C15.135 11.9167 14.0833 10.865 14.0833 5.95833C14.0833 1.05165 15.135 0 20.0417 0C24.9484 0 26 1.05165 26 5.95833C26 10.865 24.9484 11.9167 20.0417 11.9167ZM17.5107 9.56062C18.0663 9.68409 18.8644 9.75 20.0417 9.75C21.2189 9.75 22.017 9.68409 22.5726 9.56062C23.1036 9.44261 23.2715 9.30267 23.3288 9.24544C23.386 9.18821 23.5259 9.02027 23.6439 8.48928C23.7674 7.93368 23.8333 7.13555 23.8333 5.95833C23.8333 4.78111 23.7674 3.98299 23.6439 3.42739C23.5259 2.89639 23.386 2.72845 23.3288 2.67122C23.2715 2.61399 23.1036 2.47406 22.5726 2.35605C22.017 2.23257 21.2189 2.16667 20.0417 2.16667C18.8644 2.16667 18.0663 2.23257 17.5107 2.35605C16.9797 2.47406 16.8118 2.61399 16.7546 2.67122C16.6973 2.72845 16.5574 2.89639 16.4394 3.42739C16.3159 3.98299 16.25 4.78111 16.25 5.95833C16.25 7.13555 16.3159 7.93368 16.4394 8.48928C16.5574 9.02027 16.6973 9.18821 16.7546 9.24544C16.8118 9.30267 16.9797 9.44261 17.5107 9.56062Z" fill="white"/>
<path fill-rule="evenodd" clip-rule="evenodd" d="M5.95833 26C1.05165 26 0 24.9484 0 20.0417C0 15.135 1.05165 14.0833 5.95833 14.0833C10.865 14.0833 11.9167 15.135 11.9167 20.0417C11.9167 24.9484 10.865 26 5.95833 26ZM2.35605 22.5726C2.23257 22.017 2.16667 21.2189 2.16667 20.0417C2.16667 18.8644 2.23257 18.0663 2.35605 17.5107C2.47406 16.9797 2.61399 16.8118 2.67122 16.7546C2.72845 16.6973 2.89639 16.5574 3.42739 16.4394C3.98299 16.3159 4.78111 16.25 5.95833 16.25C7.13555 16.25 7.93368 16.3159 8.48928 16.4394C9.02027 16.5574 9.18821 16.6973 9.24544 16.7546C9.30267 16.8118 9.44261 16.9797 9.56062 17.5107C9.68409 18.0663 9.75 18.8644 9.75 20.0417C9.75 21.2189 9.68409 22.017 9.56062 22.5726C9.44261 23.1036 9.30267 23.2715 9.24544 23.3288C9.18821 23.386 9.02027 23.5259 8.48928 23.6439C7.93368 23.7674 7.13555 23.8333 5.95833 23.8333C4.78111 23.8333 3.98299 23.7674 3.42739 23.6439C2.89639 23.5259 2.72845 23.386 2.67122 23.3288C2.61399 23.2715 2.47406 23.1036 2.35605 22.5726Z" fill="white"/>
<path fill-rule="evenodd" clip-rule="evenodd" d="M0 5.95833C0 10.865 1.05165 11.9167 5.95833 11.9167C10.865 11.9167 11.9167 10.865 11.9167 5.95833C11.9167 1.05165 10.865 0 5.95833 0C1.05165 0 0 1.05165 0 5.95833ZM2.16667 5.95833C2.16667 7.13555 2.23257 7.93368 2.35605 8.48928C2.47406 9.02027 2.61399 9.18821 2.67122 9.24544C2.72845 9.30267 2.89639 9.44261 3.42739 9.56062C3.98299 9.68409 4.78111 9.75 5.95833 9.75C7.13555 9.75 7.93368 9.68409 8.48928 9.56062C9.02027 9.44261 9.18821 9.30267 9.24544 9.24544C9.30267 9.18821 9.44261 9.02027 9.56062 8.48928C9.68409 7.93368 9.75 7.13555 9.75 5.95833C9.75 4.78111 9.68409 3.98299 9.56062 3.42739C9.44261 2.89639 9.30267 2.72845 9.24544 2.67122C9.18821 2.61399 9.02027 2.47406 8.48928 2.35605C7.93368 2.23257 7.13555 2.16667 5.95833 2.16667C4.78111 2.16667 3.98299 2.23257 3.42739 2.35605C2.89639 2.47406 2.72845 2.61399 2.67122 2.67122C2.61399 2.72845 2.47406 2.89639 2.35605 3.42739C2.23257 3.98299 2.16667 4.78111 2.16667 5.95833Z" fill="white"/>
<path fill-rule="evenodd" clip-rule="evenodd" d="M14.0833 20.0417C14.0833 24.9484 15.135 26 20.0417 26C24.9484 26 26 24.9484 26 20.0417C26 15.135 24.9484 14.0833 20.0417 14.0833C15.135 14.0833 14.0833 15.135 14.0833 20.0417ZM16.25 20.0417C16.25 21.2189 16.3159 22.017 16.4394 22.5726C16.5574 23.1036 16.6973 23.2715 16.7546 23.3288C16.8118 23.386 16.9797 23.5259 17.5107 23.6439C18.0663 23.7674 18.8644 23.8333 20.0417 23.8333C21.2189 23.8333 22.017 23.7674 22.5726 23.6439C23.1036 23.5259 23.2715 23.386 23.3288 23.3288C23.386 23.2715 23.5259 23.1036 23.6439 22.5726C23.7674 22.017 23.8333 21.2189 23.8333 20.0417C23.8333 18.8644 23.7674 18.0663 23.6439 17.5107C23.5259 16.9797 23.386 16.8118 23.3288 16.7546C23.2715 16.6973 23.1036 16.5574 22.5726 16.4394C22.017 16.3159 21.2189 16.25 20.0417 16.25C18.8644 16.25 18.0663 16.3159 17.5107 16.4394C16.9797 16.5574 16.8118 16.6973 16.7546 16.7546C16.6973 16.8118 16.5574 16.9797 16.4394 17.5107C16.3159 18.0663 16.25 18.8644 16.25 20.0417Z" fill="white"/>
</svg>
