<svg width="96" height="96" viewBox="0 0 96 96" fill="none" xmlns="http://www.w3.org/2000/svg">
<path d="M48 40C63.464 40 76 34.6274 76 28C76 21.3726 63.464 16 48 16C32.536 16 20 21.3726 20 28C20 34.6274 32.536 40 48 40Z" fill="#808080"/>
<path fill-rule="evenodd" clip-rule="evenodd" d="M47.9995 39.9981C61.3423 39.9981 72.5055 35.9983 75.3167 30.6438C75.3623 30.5566 75.5631 30.6167 75.5467 30.7138L68.4491 73.2996C68.1595 75.0372 67.2387 76.6068 65.8635 77.7068C55.4195 86.062 40.5795 86.062 30.1355 77.7068C28.7601 76.6068 27.8393 75.0372 27.5497 73.2996L20.4521 30.7138C20.4359 30.6167 20.6364 30.5566 20.6822 30.6438C23.4935 35.9983 34.6566 39.9981 47.9995 39.9981Z" fill="#D84D4D"/>
</svg>
