<svg width="26" height="26" viewBox="0 0 26 26" fill="none" xmlns="http://www.w3.org/2000/svg">
<path d="M23.4181 19.2618C23.4344 19.2704 23.4498 19.2786 23.4665 19.2874C23.4308 19.2685 23.4163 19.2608 23.4181 19.2618Z" fill="#1C1C1C"/>
<path d="M2.53516 19.289C2.55537 19.2783 2.57405 19.2684 2.59366 19.258C2.5968 19.2563 2.57984 19.2653 2.53516 19.289Z" fill="#1C1C1C"/>
<path d="M24.4199 19.7938C24.2167 19.6869 23.4301 19.2695 23.4176 19.2628C23.0635 19.0753 22.802 18.9385 22.547 18.8083C21.8563 18.4554 21.2874 18.1899 20.732 17.9693C20.0744 17.708 19.4475 17.5165 18.8145 17.3901L18.3963 14.8871C19.0946 13.6248 19.5003 12.1194 19.5003 10.5347V8.57304C20.1568 8.03279 20.5834 7.194 20.5834 6.24532C20.5834 2.81252 17.9662 0 14.6967 0H11.3038C8.03427 0 5.41705 2.81252 5.41705 6.24532C5.41705 7.19436 5.84396 8.0335 6.5006 8.57376V10.5347C6.5006 12.1194 6.90613 13.6246 7.60416 14.8869L7.18598 17.3899C6.55183 17.5165 5.92394 17.7083 5.26516 17.9703C4.71049 18.1909 4.14231 18.4561 3.45195 18.8089C3.19987 18.9378 2.94135 19.073 2.59234 19.2578C2.57299 19.2682 1.78132 19.6883 1.58094 19.7937C0.609517 20.305 0 21.3144 0 22.412V24.9167C0 25.5149 0.485003 26 1.0833 26H24.9162C25.5145 26 25.9995 25.5149 25.9995 24.9167V22.412C25.9995 21.3143 25.391 20.305 24.4199 19.7938ZM16.7752 18.332L15.435 19.7809L14.6258 18.1624C15.3278 17.9391 15.9821 17.575 16.5694 17.0994L16.7752 18.332ZM13.0004 16.2492C12.2211 16.2492 11.4715 15.9503 10.8211 15.4334C10.8082 15.4231 10.7953 15.4129 10.7824 15.4024C10.7711 15.3932 10.7599 15.3837 10.7485 15.3743C10.3511 15.0427 9.98779 14.6233 9.67554 14.126L9.62471 14.052C9.62252 14.0493 9.62095 14.0472 9.61897 14.0447C9.02885 13.0719 8.66714 11.8507 8.66714 10.5346V9.19632C8.78104 9.19079 8.89454 9.17708 9.00996 9.15382C10.5691 8.82537 11.8095 8.67882 12.9672 8.67141C13.0549 8.67029 13.0549 8.67029 13.1313 8.66861C13.2473 8.66607 13.2959 8.66557 13.3444 8.66679C14.418 8.6903 15.4057 8.82964 16.9876 9.15321C17.1047 9.17677 17.2191 9.19069 17.3336 9.19627V10.5347C17.3336 11.8505 16.9719 13.0715 16.3818 14.0444C16.3797 14.047 16.378 14.0492 16.3757 14.0521L16.3248 14.1261C16.0127 14.6233 15.6495 15.0426 15.2522 15.3742C15.2407 15.3837 15.2292 15.3933 15.2177 15.4027C15.2051 15.413 15.1924 15.423 15.1797 15.4331C14.5294 15.9501 13.7797 16.2492 13.0004 16.2492ZM11.3742 18.1623L10.5649 19.7808L10.2484 19.4387L9.22517 18.332L9.43108 17.0995C10.0182 17.5749 10.6724 17.9389 11.3742 18.1623ZM10.8336 2.20041V3.24994C10.8336 3.84793 11.3178 4.33324 11.9169 4.33324H14.0835C14.6826 4.33324 15.1668 3.84793 15.1668 3.24994V2.20041C16.9859 2.4535 18.4168 4.15307 18.4168 6.24532C18.4168 6.56468 18.2648 6.81985 18.0582 6.94752C18.0307 6.95721 18.0034 6.96773 17.9761 6.97986C17.8954 7.01581 17.8118 7.03074 17.7217 7.02429L17.6471 7.02556C14.0745 6.33561 12.0389 6.29397 8.35306 7.02556L8.27903 7.02429C8.18894 7.03074 8.10536 7.01581 8.02462 6.97986C7.99496 6.96666 7.9651 6.95539 7.93519 6.94503C7.73309 6.81599 7.58359 6.56214 7.58359 6.24532C7.58364 4.15307 9.01453 2.4535 10.8336 2.20041ZM23.833 23.8334H2.16665V22.4121C2.16665 22.1189 2.33046 21.8477 2.59 21.711C2.79378 21.6038 3.59083 21.1809 3.60835 21.1715C3.94772 20.9918 4.1974 20.8612 4.4379 20.7383C5.07275 20.4139 5.5832 20.1756 6.06576 19.9836C6.53457 19.7972 6.97428 19.6566 7.40698 19.5575L8.66313 20.9156L10.0377 22.4023C10.2467 22.6283 10.5214 22.7411 10.7966 22.7497C10.8109 22.7502 10.8253 22.75 10.8396 22.7499C10.8462 22.7498 10.8528 22.7501 10.8595 22.7499C11.24 22.7402 11.612 22.5325 11.8026 22.1513L13 19.7565L14.1974 22.1513C14.3879 22.5324 14.7598 22.7402 15.1402 22.75C15.436 22.7577 15.7369 22.6457 15.9619 22.4025L18.5932 19.5578C19.0251 19.6566 19.4641 19.797 19.932 19.9829C20.4151 20.1748 20.9261 20.4132 21.5613 20.7378C21.8046 20.8621 22.0573 20.9943 22.402 21.1768C22.4143 21.1835 23.2045 21.6027 23.4108 21.7112C23.6695 21.8475 23.8329 22.1184 23.8329 22.4122V23.8334H23.833Z" fill="#1C1C1C"/>
</svg>
