<svg width="20" height="20" viewBox="0 0 20 20" fill="none" xmlns="http://www.w3.org/2000/svg">
<path d="M9.9987 12.4998C10.9192 12.4998 11.6654 11.7536 11.6654 10.8332C11.6654 9.9127 10.9192 9.1665 9.9987 9.1665C9.07822 9.1665 8.33203 9.9127 8.33203 10.8332C8.33203 11.7536 9.07822 12.4998 9.9987 12.4998Z" stroke="black" stroke-width="1.2" stroke-linejoin="round"/>
<path d="M9.99842 6.25C6.41106 6.25 3.72856 9.23608 2.82736 10.3877C2.62005 10.6527 2.62005 11.014 2.82736 11.2789C3.72856 12.4306 6.41106 15.4167 9.99842 15.4167C13.5858 15.4167 16.2683 12.4306 17.1695 11.2789C17.3768 11.014 17.3768 10.6527 17.1695 10.3877C16.2683 9.23608 13.5858 6.25 9.99842 6.25Z" stroke="black" stroke-width="1.2" stroke-linecap="round" stroke-linejoin="round"/>
</svg>
