<svg width="16" height="17" viewBox="0 0 16 17" fill="none" xmlns="http://www.w3.org/2000/svg">
<path d="M14.4329 13.75C13.481 12.1044 12.0142 10.9244 10.3023 10.365C11.1491 9.8609 11.8069 9.09279 12.1749 8.17861C12.5429 7.26444 12.6006 6.25474 12.3392 5.30459C12.0778 4.35444 11.5117 3.51636 10.7279 2.91907C9.94408 2.32178 8.98587 1.99829 8.00041 1.99829C7.01496 1.99829 6.05675 2.32178 5.27293 2.91907C4.48911 3.51636 3.92304 4.35444 3.66163 5.30459C3.40022 6.25474 3.45793 7.26444 3.82591 8.17861C4.19388 9.09279 4.85177 9.8609 5.69854 10.365C3.98666 10.9237 2.51979 12.1037 1.56791 13.75C1.53301 13.8069 1.50985 13.8702 1.49982 13.9363C1.48978 14.0023 1.49307 14.0696 1.50949 14.1343C1.52591 14.1991 1.55512 14.2598 1.59541 14.3131C1.63569 14.3663 1.68624 14.411 1.74405 14.4444C1.80187 14.4778 1.86579 14.4992 1.93204 14.5075C1.9983 14.5158 2.06554 14.5108 2.1298 14.4926C2.19407 14.4745 2.25405 14.4437 2.30622 14.402C2.35838 14.3604 2.40168 14.3087 2.43354 14.25C3.61104 12.215 5.69229 11 8.00041 11C10.3085 11 12.3898 12.215 13.5673 14.25C13.5992 14.3087 13.6424 14.3604 13.6946 14.402C13.7468 14.4437 13.8068 14.4745 13.871 14.4926C13.9353 14.5108 14.0025 14.5158 14.0688 14.5075C14.135 14.4992 14.199 14.4778 14.2568 14.4444C14.3146 14.411 14.3651 14.3663 14.4054 14.3131C14.4457 14.2598 14.4749 14.1991 14.4913 14.1343C14.5078 14.0696 14.511 14.0023 14.501 13.9363C14.491 13.8702 14.4678 13.8069 14.4329 13.75ZM4.50041 6.49999C4.50041 5.80776 4.70568 5.13107 5.09027 4.5555C5.47485 3.97992 6.02148 3.53132 6.66102 3.26641C7.30056 3.00151 8.0043 2.93219 8.68323 3.06724C9.36216 3.20229 9.9858 3.53563 10.4753 4.02512C10.9648 4.5146 11.2981 5.13824 11.4332 5.81718C11.5682 6.49611 11.4989 7.19984 11.234 7.83938C10.9691 8.47892 10.5205 9.02555 9.94491 9.41014C9.36934 9.79472 8.69265 9.99999 8.00041 9.99999C7.07246 9.999 6.1828 9.62993 5.52664 8.97377C4.87047 8.31761 4.50141 7.42794 4.50041 6.49999Z" fill="white"/>
</svg>
